<?xml version="1.0" encoding="UTF-8"?>
<svg id="Layer_1" data-name="Layer 1" xmlns="http://www.w3.org/2000/svg" xmlns:xlink="http://www.w3.org/1999/xlink" viewBox="0 0 1396.71 351.77">
  <defs>
    <style>
      .cls-1 {
        fill: url(#linear-gradient-5);
      }

      .cls-2 {
        fill: url(#linear-gradient-4);
      }

      .cls-3 {
        fill: url(#linear-gradient-3);
      }

      .cls-4 {
        fill: url(#linear-gradient-2);
      }

      .cls-5 {
        fill: url(#linear-gradient);
      }

      .cls-6 {
        fill: #9e51fa;
      }

      .cls-7 {
        fill: #0859df;
      }
    </style>
    <linearGradient id="linear-gradient" x1="16.54" y1="211" x2="324.58" y2="211" gradientUnits="userSpaceOnUse">
      <stop offset="0" stop-color="#9b4afb"/>
      <stop offset="1" stop-color="#6227c4"/>
    </linearGradient>
    <linearGradient id="linear-gradient-2" x1="124.54" y1="131.71" x2="168.85" y2="131.71" xlink:href="#linear-gradient"/>
    <linearGradient id="linear-gradient-3" x1="115.08" y1="230.28" x2="231.18" y2="230.28" xlink:href="#linear-gradient"/>
    <linearGradient id="linear-gradient-4" x1="115.1" y1="198.08" x2="231.1" y2="198.08" xlink:href="#linear-gradient"/>
    <linearGradient id="linear-gradient-5" x1="-26.94" y1="26.94" x2="174.4" y2="228.27" gradientUnits="userSpaceOnUse">
      <stop offset="0" stop-color="#33a4ff"/>
      <stop offset="1" stop-color="#0f5de5"/>
    </linearGradient>
  </defs>
  <g>
    <path class="cls-7" d="M382.22,100.23h69.19c68.37,0,90.7,30.32,90.7,90.97s-17.64,93.18-89.04,93.18h-70.85V100.23ZM454.45,242.48c9.65,0,20.67,0,28.95-7.72,6.34-5.79,9.65-17.09,9.65-33.36v-19.02c0-14.06-1.65-25.36-7.72-31.7-6.34-6.34-15.71-8.55-30.6-8.55h-23.71v100.34h23.43Z"/>
    <path class="cls-7" d="M588.7,79.56c22.33,0,24.81,3.31,24.81,19.57s-2.48,19.3-24.81,19.3-25.09-3.03-25.09-19.3,2.48-19.57,25.09-19.57ZM612.14,138.83v145.55h-47.14v-145.55h47.14Z"/>
    <path class="cls-7" d="M781.4,209.12c0,53.2-22.88,78.29-57.06,78.29-25.36,0-33.91-9.37-39.7-20.4l-1.1.55c1.38,6.62,2.76,22.33,2.76,32.25v46.31h-47.14v-207.3h34.18l11.3,22.05h1.1c7.17-15.16,18.75-25.09,41.63-25.09,28.67,0,54.03,19.85,54.03,73.33ZM733.43,198.65c0-20.95-6.06-25.09-23.43-25.09-7.44,0-18.47,1.93-23.71,5.24v65.88c2.76,1.65,11.3,4.96,22.88,4.96,18.47,0,24.26-7.44,24.26-28.39v-22.61Z"/>
    <path class="cls-7" d="M850.32,78.73v205.65h-47.14V78.73h47.14Z"/>
    <path class="cls-7" d="M917.03,223.18v8c0,14.61,6.89,20.12,36.39,20.12,20.4,0,36.66-2.48,44.38-4.41l1.1,1.1v33.08c-8.82,2.76-27.29,6.34-49.07,6.34-59.82,0-77.74-25.36-77.74-74.98,0-52.93,24.53-76.64,71.12-76.64,38.59,0,60.65,19.3,60.65,57.34v30.05h-86.84ZM917.03,194.51h44.11v-9.92c0-11.3-3.58-15.71-19.3-15.71h-2.48c-17.92,0-22.33,7.72-22.33,25.64Z"/>
    <path class="cls-6" d="M1026.75,100.23h88.49c38.87,0,57.06,17.64,57.06,46.04,0,21.23-8.55,35.29-28.67,40.8v1.38c24.54,3.31,36.11,19.57,36.11,42.45,0,35.56-20.12,53.48-58.72,53.48h-94.28V100.23ZM1106.97,174.11c14.89,0,19.02-5.79,19.02-16.54v-5.24c0-10.48-4.41-14.33-19.02-14.33h-31.43v36.11h31.43ZM1111.93,246.61c14.34,0,18.75-4.69,18.75-16.54v-7.72c0-10.2-4.41-15.71-22.88-15.71h-32.25v39.97h36.39Z"/>
    <path class="cls-6" d="M1224.96,79.56c22.33,0,24.81,3.31,24.81,19.57s-2.48,19.3-24.81,19.3-25.09-3.03-25.09-19.3,2.48-19.57,25.09-19.57ZM1248.4,138.83v145.55h-47.14v-145.55h47.14Z"/>
    <path class="cls-6" d="M1322.55,78.73v205.65h-47.14V78.73h47.14Z"/>
    <path class="cls-6" d="M1396.71,78.73v205.65h-47.14V78.73h47.14Z"/>
  </g>
  <g>
    <g>
      <path class="cls-5" d="M16.54,341.99l10.05,3.67c8.65,3.16,17.96,3.89,26.46.43l5.95-1.51c10.46-3.74,18.41-11.75,25.52-20.37,10.11-12.25,16.9-26.26,21.21-41.66,1.47-5.26,5.94-10.02,12.16-10.03l117.63-.07c2.36,0,6.4-.19,8.09-1.07l9.48-4.93c2.54-5.15,6.1-10.23,6.1-15.96l.08-111.57-36.68.06c-6.38,0-10.63-4.48-10.49-11.03.77-21.86-1.96-43.45-19.76-57.72,35.87,3.42,70.08,12.06,101.73,27.74,20.8,10.3,30.48,29.65,30.49,52.66l.03,89.84c.02,58.93-48.01,110.77-106.07,110.9l-175.6.39c-8.56.02-21.72-3.73-26.37-9.77Z"/>
      <g>
        <path class="cls-4" d="M152.54,171.33l-12.69.29-.24-8c-5.36-1.65-9.1-3.03-14.66-6.19l6.28-11.58c10.44,6.27,22.79,6.09,22.96-.7.19-7.86-13.04-5.25-23.29-12.7-5.84-4.25-7.46-11.55-5.68-18.56,1.5-5.94,6.71-11.1,14.22-12.87l.31-9.22h12.72s.21,8.66.21,8.66c5.08,1.69,8.53,3.06,13.03,5.77l-6.23,11.6c-8.51-4.68-18.33-6.51-20.05-.5-.57,1.98,1.26,5.25,3.41,5.95l13.83,4.46c4.86,1.57,9.59,5.69,11.13,10.45,3.71,11.43-2.84,22.43-14.83,24.78l-.44,8.35Z"/>
        <path class="cls-3" d="M226.79,236.51l-107.73-.12c-2.99,0-4.4-5.1-3.87-7.14.75-2.91,3.32-5.22,7.16-5.21l103.83.08c2.37,0,4.76,3.51,4.95,5.31.29,2.71-1.02,5.35-4.34,7.08Z"/>
        <path class="cls-2" d="M226.72,204.19l-106.82.1c-2.82,0-4.89-4.11-4.79-6.09.13-2.71,2.28-6.33,5.68-6.32l105.61.06c2.41,0,4.33,3.47,4.65,5.22.35,1.95-.98,7.03-4.33,7.04Z"/>
      </g>
    </g>
    <path class="cls-1" d="M220.03,12.69C202.66,4.6,185.06.53,165.55,0H0s.06,181.13.06,181.13v130c.26,11.64,8.54,27.96,16.48,30.86l10.05,3.67c8.65,3.16,17.96,3.89,26.46.43,4.63-1.88,8.69-4.76,12.11-8.7l-.05-187.19-.03-3.24v-2.06s.16-67.06.16-67.06c.02-8.06,7.48-14.95,15.43-15.01l22.69-.17,81.27.37c36.68.17,71.31,9.94,105.43,25.14-12.62-34.26-37.95-60.59-70.01-75.5Z"/>
  </g>
</svg>